<?xml version="1.0" standalone="no"?>
<!DOCTYPE svg PUBLIC "-//W3C//DTD SVG 20010904//EN"
 "http://www.w3.org/TR/2001/REC-SVG-20010904/DTD/svg10.dtd">
<svg version="1.0" xmlns="http://www.w3.org/2000/svg"
 width="1280.000000pt" height="640.000000pt" viewBox="0 0 1280.000000 640.000000"
 preserveAspectRatio="xMidYMid meet">
<metadata>
Created by potrace 1.15, written by Peter Selinger 2001-2017
</metadata>
<g transform="translate(0.000000,640.000000) scale(0.100000,-0.100000)"
fill="#000000" stroke="none">
<path d="M2750 5960 c-99 -198 -182 -360 -185 -360 -3 0 -167 81 -365 180
-198 99 -361 180 -363 180 -2 0 -14 -23 -27 -51 -16 -34 -21 -53 -13 -57 6 -4
55 -34 108 -67 126 -78 221 -165 251 -230 33 -69 32 -153 -2 -253 -14 -41
-331 -686 -705 -1431 -493 -985 -695 -1378 -737 -1436 -65 -90 -134 -140 -210
-151 -79 -12 -204 19 -370 91 l-76 34 -28 -51 c-16 -28 -27 -52 -26 -54 2 -1
166 -83 366 -183 l362 -181 -190 -380 c-104 -209 -190 -383 -190 -388 0 -6
342 -182 355 -182 3 0 90 171 195 380 105 209 193 380 197 380 15 0 313 -155
313 -162 0 -5 -84 -176 -187 -381 -103 -204 -189 -375 -191 -379 -2 -4 78 -48
177 -98 l181 -90 125 251 c69 138 143 283 164 322 21 40 52 100 69 134 l32 62
107 -51 c439 -206 796 -267 1120 -192 340 79 626 346 737 689 129 401 -23 793
-457 1176 -42 38 -74 69 -71 69 3 0 52 -10 107 -22 139 -30 407 -32 512 -4
161 42 303 135 410 269 75 94 154 247 192 372 24 80 27 107 27 240 1 118 -3
164 -18 215 -28 100 -109 259 -175 347 -121 161 -354 361 -578 497 l-81 50
179 358 c98 197 179 362 179 368 0 10 -331 180 -350 180 -5 0 -89 -159 -186
-352 -97 -194 -178 -355 -180 -358 -6 -5 -325 153 -321 160 47 92 357 711 357
715 0 3 -81 45 -180 95 l-180 90 -180 -360z m325 -873 c279 -137 443 -246 571
-379 234 -243 294 -494 190 -800 -48 -142 -107 -238 -206 -339 -69 -70 -101
-94 -170 -128 -92 -45 -203 -71 -300 -71 -99 0 -288 41 -391 84 -13 6 -32 -18
-88 -108 -39 -64 -71 -119 -71 -124 0 -4 29 -26 64 -50 221 -151 387 -348 451
-537 41 -123 35 -307 -15 -457 -107 -318 -322 -551 -565 -613 -256 -65 -572 5
-995 221 -221 113 -289 183 -277 287 5 38 87 210 363 760 196 392 359 714 361
717 3 3 68 -28 146 -67 77 -40 142 -71 143 -70 0 1 26 50 56 110 38 74 51 110
44 116 -6 5 -71 39 -144 75 l-132 66 324 648 c178 356 334 660 347 676 34 43
79 68 114 61 17 -2 98 -38 180 -78z"/>
<path d="M3605 4404 c-112 -24 -241 -70 -375 -135 -345 -166 -660 -455 -840
-769 -69 -122 -197 -416 -226 -524 -87 -316 -3 -607 218 -758 130 -88 254
-118 482 -118 l155 0 10 38 c5 20 21 81 34 135 l25 97 -112 0 c-198 0 -331 46
-425 145 -93 99 -127 200 -119 362 6 119 35 209 136 430 80 176 152 288 258
402 235 252 534 411 834 443 58 6 107 12 109 14 5 5 -80 254 -87 253 -4 0 -38
-7 -77 -15z"/>
<path d="M5790 5730 l0 -400 -405 0 -405 0 0 -58 0 -58 133 -12 c287 -25 387
-86 433 -261 16 -60 18 -166 21 -1264 2 -659 8 -1197 12 -1195 4 2 143 79 309
173 l302 170 0 227 0 227 137 3 138 3 41 115 42 115 -179 3 -179 2 0 738 c0
696 1 739 19 778 30 65 40 67 368 61 305 -5 378 -14 541 -68 210 -68 379 -204
459 -369 67 -137 77 -189 77 -390 0 -164 -2 -180 -27 -255 -50 -147 -133 -258
-253 -337 -35 -23 -64 -47 -64 -53 0 -5 38 -135 83 -287 l83 -278 40 -28 c121
-88 218 -252 255 -432 18 -89 20 -127 16 -255 -9 -261 -62 -401 -207 -545
-134 -134 -290 -204 -556 -251 -111 -20 -165 -23 -384 -23 -290 -1 -330 5
-390 63 -22 21 -42 53 -49 76 -7 25 -11 161 -11 373 0 182 -3 332 -7 332 -5
-1 -143 -63 -308 -140 l-300 -138 -7 -159 c-11 -243 -30 -327 -92 -400 -57
-67 -188 -107 -393 -120 l-103 -6 0 -59 0 -58 405 0 405 0 0 -425 0 -425 200
0 200 0 0 425 0 425 175 0 175 0 0 -425 0 -425 200 0 200 0 0 423 0 424 163 7
c89 3 209 13 267 20 591 81 964 362 1093 824 18 65 21 104 21 257 0 168 -2
186 -28 270 -112 366 -402 591 -950 737 l-49 13 104 29 c379 105 599 291 688
578 55 181 46 433 -22 620 -114 315 -398 522 -852 622 -105 23 -205 38 -360
54 l-70 7 -3 403 -2 402 -200 0 -200 0 0 -400 0 -400 -175 0 -175 0 0 400 0
400 -200 0 -200 0 0 -400z"/>
<path d="M10645 5664 c-55 -212 -102 -389 -105 -394 -5 -7 -656 154 -790 195
-12 4 -19 -7 -28 -40 -7 -25 -12 -51 -12 -58 0 -8 53 -33 129 -61 304 -111
381 -207 351 -435 -9 -71 -95 -430 -115 -482 -5 -12 48 -29 297 -93 167 -43
307 -78 312 -79 6 -1 44 129 86 288 42 160 84 304 93 322 23 43 64 73 100 73
28 0 259 -57 412 -102 152 -44 334 -128 450 -208 126 -87 250 -236 295 -357
72 -190 62 -418 -26 -640 -126 -317 -424 -477 -805 -433 -57 6 -133 18 -169
26 -77 18 -644 165 -648 168 -1 2 29 122 67 267 38 145 66 267 63 270 -4 4
-124 19 -267 33 -143 15 -285 29 -315 32 l-55 6 -139 -534 c-447 -1717 -434
-1673 -483 -1758 -34 -60 -80 -107 -128 -133 -60 -32 -215 -35 -367 -8 -64 12
-121 21 -127 21 -11 0 -36 -98 -27 -108 4 -3 182 -52 397 -108 215 -56 392
-104 394 -106 2 -2 -45 -192 -106 -422 -60 -231 -107 -421 -105 -423 8 -8 388
-104 393 -100 2 3 52 189 110 414 58 224 109 412 114 417 10 11 349 -75 349
-89 0 -5 -49 -196 -108 -423 -60 -227 -106 -415 -102 -417 3 -2 69 -20 145
-40 77 -20 162 -43 189 -51 28 -8 53 -11 57 -7 3 5 55 195 114 423 59 228 108
416 109 417 1 1 35 -7 76 -17 327 -86 672 -107 921 -55 393 82 682 328 808
689 181 518 -44 977 -646 1315 -90 50 -114 69 -74 56 28 -8 297 12 378 29 414
88 662 395 689 856 24 395 -200 723 -657 964 -103 54 -295 136 -397 170 -40
14 -52 22 -48 34 15 48 205 786 203 787 -2 2 -315 84 -364 95 -26 6 -33 4 -37
-9 -3 -9 -48 -182 -101 -386 -52 -203 -97 -375 -99 -381 -3 -7 -63 4 -178 34
-95 25 -174 46 -176 48 -2 1 43 178 99 393 61 235 99 395 93 401 -9 8 -355
100 -378 100 -7 0 -53 -159 -111 -386z m-50 -2605 c523 -143 818 -280 1005
-470 87 -88 140 -172 177 -284 25 -73 27 -94 27 -230 1 -130 -3 -164 -26 -255
-72 -286 -204 -472 -407 -573 -137 -69 -209 -82 -441 -82 -217 1 -294 11 -545
75 -183 46 -253 72 -308 114 -61 46 -79 87 -74 166 4 54 387 1554 404 1583 3
4 12 5 21 3 10 -3 85 -24 167 -47z"/>
<path d="M11472 2515 c-39 -82 -109 -152 -192 -193 -116 -57 -161 -62 -615
-62 l-410 0 -47 -136 -47 -135 572 3 572 3 94 33 c52 18 125 53 162 78 62 41
138 115 160 155 6 13 -19 53 -105 168 l-114 152 -30 -66z"/>
<path d="M4440 4423 c0 -5 13 -64 29 -133 l27 -125 507 -3 507 -2 0 135 0 135
-535 0 c-294 0 -535 -3 -535 -7z"/>
<path d="M6230 4292 l0 -138 63 -12 c126 -24 244 -102 304 -203 74 -123 83
-302 25 -474 -46 -137 -163 -384 -227 -480 -179 -270 -493 -498 -804 -583
l-96 -27 -844 -3 -844 -3 6 -97 c4 -53 7 -114 7 -135 l0 -38 803 4 c866 4 808
0 994 57 421 129 849 470 1076 857 65 110 203 427 229 524 l22 80 17 -88 c10
-48 30 -122 45 -163 35 -99 164 -377 214 -461 93 -156 243 -332 400 -466 l75
-65 7 49 c3 26 7 88 7 136 l1 89 -71 76 c-101 110 -170 219 -259 410 -112 239
-125 287 -125 447 0 113 3 138 24 188 32 81 124 178 206 217 l62 30 6 112 c4
62 7 130 7 151 l0 38 -47 -6 c-268 -36 -455 -176 -533 -398 -20 -56 -21 -54
-39 37 -32 175 -158 329 -331 409 -79 36 -222 67 -312 67 l-68 0 0 -138z"/>
<path d="M8342 4208 c-13 -62 -26 -123 -29 -135 l-5 -23 963 0 c817 0 978 -2
1058 -15 111 -18 213 -51 330 -106 262 -122 536 -382 657 -621 22 -43 40 -68
51 -68 20 0 233 50 233 55 0 8 -76 136 -112 190 -68 100 -141 185 -255 295
-259 252 -539 414 -872 503 l-116 32 -940 3 -940 3 -23 -113z"/>
<path d="M8528 2138 c-20 -73 -31 -127 -26 -133 11 -12 888 -20 888 -8 0 4 16
65 34 136 l35 127 -448 0 -448 0 -35 -122z"/>
</g>
</svg>
